# xmcd CD database file
#
# Track frame offsets:
#	150
#	12137
#	35865
#	63015
#	79975
#	94460
#	107672
#	123500
#	138727
#	158145
#	167142
#	182520
#
# Disc length: 2865 seconds
#
# Revision: 0
# Processed by: cddbd v1.5PL3 Copyright (c) Steve Scherf et al.
# Submitted via: CDex 1.51
#
DISCID=a00b2f0c
DTITLE=Àj®Ê®Ñ - Growth
DYEAR=2002
DGENRE=New Age
TTITLE0=Mulan
TTITLE1=Growth
TTITLE2=Ginger flower
TTITLE3=Morning broadcast
TTITLE4=Carousel
TTITLE5=Mature walk
TTITLE6=Meditation
TTITLE7=To mimi
TTITLE8=Walking in the park
TTITLE9=Chime
TTITLE10=You touch my soul
TTITLE11=To George
EXTD=YEAR: 2002
EXTT0=
EXTT1=
EXTT2=
EXTT3=
EXTT4=
EXTT5=
EXTT6=
EXTT7=
EXTT8=
EXTT9=
EXTT10=
EXTT11=
PLAYORDER=
